# xmcd
#
# Track frame offsets: 
#        150
#        34708
#        54310
#        89480
#        109630
#        140955
#        159155
#        178030
#
# Disc length: 2910 seconds
#
# Revision: 0
# Processed by: cddbd v1.5.2PL0 Copyright (c) Steve Scherf et al.
# Submitted via: ExactAudioCopy v1.3
#
DISCID=640b5c08
DTITLE=Junior Wells and Buddy Guy - Pleading The Blues
DYEAR=1993
DGENRE=Chicago Blues
TTITLE0=Pleading The Blues
TTITLE1=It Hurts Me Too
TTITLE2=Cut Out The Lights
TTITLE3=Quit Teasing My Baby
TTITLE4=I'll Take Care Of You
TTITLE5=Take Your Time Baby
TTITLE6=Just For My Baby
TTITLE7=I Smell Something
EXTD=
EXTT0=
EXTT1=
EXTT2=
EXTT3=
EXTT4=
EXTT5=
EXTT6=
EXTT7=
PLAYORDER=
